<svg width="30" height="30" viewBox="0 0 30 30" fill="none" xmlns="http://www.w3.org/2000/svg">
<g clip-path="url(#clip0_3_2)">
<path d="M20.97 0H9.03C4.04287 0 0 4.04287 0 9.03V20.97C0 25.9571 4.04287 30 9.03 30H20.97C25.9571 30 30 25.9571 30 20.97V9.03C30 4.04287 25.9571 0 20.97 0Z" fill="black"/>
<path d="M12.6949 21.7648L12.6948 21.7848L14.89 24.0095L14.9397 24.0498L14.99 24.0101L17.2147 21.8149L17.2148 21.7949L25.5094 13.62L22.3308 10.3987L17.2573 15.415L17.3202 5.96525L12.8003 5.93515L12.7374 15.3849L7.73112 10.3015L4.50988 13.4801L12.6949 21.7648Z" fill="white"/>
</g>
<defs>
<clipPath id="clip0_3_2">
<rect width="30" height="30" fill="white"/>
</clipPath>
</defs>
</svg>
